<svg id="visual" viewBox="0 0 960 540" width="960" height="540" xmlns="http://www.w3.org/2000/svg" xmlns:xlink="http://www.w3.org/1999/xlink" version="1.1"><g><g transform="translate(171 489)"><path d="M0 -50.4L43.6 -25.2L43.6 25.2L0 50.4L-43.6 25.2L-43.6 -25.2Z" fill="#b9dcec"></path></g><g transform="translate(813 367)"><path d="M0 -46L39.8 -23L39.8 23L0 46L-39.8 23L-39.8 -23Z" fill="#b9dcec"></path></g><g transform="translate(424 156)"><path d="M0 -44L38.1 -22L38.1 22L0 44L-38.1 22L-38.1 -22Z" fill="#b9dcec"></path></g><g transform="translate(51 358)"><path d="M0 -49L42.4 -24.5L42.4 24.5L0 49L-42.4 24.5L-42.4 -24.5Z" fill="#b9dcec"></path></g><g transform="translate(582 72)"><path d="M0 -45L39 -22.5L39 22.5L0 45L-39 22.5L-39 -22.5Z" fill="#b9dcec"></path></g><g transform="translate(447 362)"><path d="M0 -48L41.6 -24L41.6 24L0 48L-41.6 24L-41.6 -24Z" fill="#b9dcec"></path></g></g></svg>